<?xml version="1.0" standalone="no"?>
<!DOCTYPE svg PUBLIC "-//W3C//DTD SVG 20010904//EN"
 "http://www.w3.org/TR/2001/REC-SVG-20010904/DTD/svg10.dtd">
<svg version="1.0" xmlns="http://www.w3.org/2000/svg"
 width="1200.000000pt" height="1200.000000pt" viewBox="0 0 1200.000000 1200.000000"
 preserveAspectRatio="xMidYMid meet">

<g transform="translate(0.000000,1200.000000) scale(0.100000,-0.100000)"
fill="#000000" stroke="#ffff">
<path d="M2407 8843 c-4 -3 -7 -717 -7 -1585 l0 -1578 682 -2 683 -3 -3 -40
c-1 -22 -10 -89 -18 -150 -68 -487 -216 -829 -460 -1065 -190 -184 -405 -282
-679 -311 -55 -6 -122 -14 -150 -17 l-50 -7 -3 -488 -2 -487 49 0 c26 0 117 7
202 15 804 80 1425 289 1886 636 188 140 382 349 516 554 79 121 202 371 260
529 125 335 205 737 244 1211 15 183 17 376 18 1500 l0 1290 -1581 3 c-869 1
-1584 -1 -1587 -5z"/>
<path d="M6760 7265 l0 -1585 680 0 c650 0 680 -1 680 -18 0 -10 -7 -67 -15
-128 -109 -818 -442 -1278 -1017 -1405 -66 -14 -262 -38 -320 -39 -5 0 -8
-221 -8 -492 l0 -491 104 6 c393 24 871 115 1210 228 702 237 1172 624 1466
1209 219 435 337 949 380 1640 6 96 10 687 10 1413 l0 1247 -1585 0 -1585 0 0
-1585z"/>
</g>
</svg>
